<mxfile host="65bd71144e">
    <diagram id="DBcd8jmgzd660eqi4NCp" name="Page-1">
        <mxGraphModel dx="927" dy="1746" grid="1" gridSize="10" guides="1" tooltips="1" connect="1" arrows="1" fold="1" page="1" pageScale="1" pageWidth="850" pageHeight="1100" math="0" shadow="0">
            <root>
                <mxCell id="0"/>
                <mxCell id="1" parent="0"/>
                <mxCell id="2" value="" style="rounded=0;whiteSpace=wrap;html=1;fillColor=none;container=1;" parent="1" vertex="1">
                    <mxGeometry x="30" y="90" width="120" height="110" as="geometry"/>
                </mxCell>
                <mxCell id="3" value="main" style="text;html=1;align=center;verticalAlign=middle;whiteSpace=wrap;rounded=0;" parent="2" vertex="1">
                    <mxGeometry x="10" y="10" width="40" height="20" as="geometry"/>
                </mxCell>
                <mxCell id="4" value="mahito" style="rounded=0;whiteSpace=wrap;html=1;fillColor=none;container=1;" parent="2" vertex="1">
                    <mxGeometry x="20" y="50" width="80" height="45" as="geometry"/>
                </mxCell>
                <mxCell id="7" value="" style="rounded=0;whiteSpace=wrap;html=1;fillColor=none;container=1;recursiveResize=0;" parent="1" vertex="1">
                    <mxGeometry x="210" y="100" width="110" height="100" as="geometry"/>
                </mxCell>
                <mxCell id="8" value="Mahito" style="text;html=1;align=center;verticalAlign=middle;whiteSpace=wrap;rounded=0;" parent="7" vertex="1">
                    <mxGeometry x="10" y="10" width="40" height="20" as="geometry"/>
                </mxCell>
                <mxCell id="9" value="soul" style="rounded=0;whiteSpace=wrap;html=1;fillColor=none;container=1;" parent="7" vertex="1">
                    <mxGeometry x="15" y="40" width="80" height="45" as="geometry"/>
                </mxCell>
                <mxCell id="10" value="" style="rounded=0;whiteSpace=wrap;html=1;fillColor=none;container=1;recursiveResize=0;" parent="1" vertex="1">
                    <mxGeometry x="210" y="-20" width="110" height="100" as="geometry"/>
                </mxCell>
                <mxCell id="11" value="Soul" style="text;html=1;align=center;verticalAlign=middle;whiteSpace=wrap;rounded=0;" parent="10" vertex="1">
                    <mxGeometry x="10" y="10" width="40" height="20" as="geometry"/>
                </mxCell>
                <mxCell id="12" value="num: 1" style="rounded=0;whiteSpace=wrap;html=1;fillColor=none;container=1;" parent="10" vertex="1">
                    <mxGeometry x="15" y="40" width="80" height="45" as="geometry"/>
                </mxCell>
                <mxCell id="13" style="edgeStyle=none;html=1;entryX=1;entryY=0.5;entryDx=0;entryDy=0;exitX=1;exitY=0.5;exitDx=0;exitDy=0;" parent="1" source="9" target="18" edge="1">
                    <mxGeometry relative="1" as="geometry">
                        <Array as="points">
                            <mxPoint x="370"/>
                        </Array>
                    </mxGeometry>
                </mxCell>
                <mxCell id="14" style="edgeStyle=none;html=1;entryX=0;entryY=0.5;entryDx=0;entryDy=0;" parent="1" source="4" target="7" edge="1">
                    <mxGeometry relative="1" as="geometry"/>
                </mxCell>
                <mxCell id="15" value="" style="rounded=0;whiteSpace=wrap;html=1;fillColor=none;container=1;recursiveResize=0;" parent="1" vertex="1">
                    <mxGeometry x="210" y="-120" width="110" height="100" as="geometry"/>
                </mxCell>
                <mxCell id="16" value="Soul" style="text;html=1;align=center;verticalAlign=middle;whiteSpace=wrap;rounded=0;" parent="15" vertex="1">
                    <mxGeometry x="10" y="10" width="40" height="20" as="geometry"/>
                </mxCell>
                <mxCell id="17" value="num: 1" style="rounded=0;whiteSpace=wrap;html=1;fillColor=none;container=1;" parent="15" vertex="1">
                    <mxGeometry x="15" y="40" width="80" height="45" as="geometry"/>
                </mxCell>
                <mxCell id="18" value="" style="rounded=0;whiteSpace=wrap;html=1;fillColor=none;container=1;recursiveResize=0;" parent="1" vertex="1">
                    <mxGeometry x="210" y="-220" width="110" height="100" as="geometry"/>
                </mxCell>
                <mxCell id="19" value="Soul" style="text;html=1;align=center;verticalAlign=middle;whiteSpace=wrap;rounded=0;" parent="18" vertex="1">
                    <mxGeometry x="10" y="10" width="40" height="20" as="geometry"/>
                </mxCell>
                <mxCell id="20" value="num: 2" style="rounded=0;whiteSpace=wrap;html=1;fillColor=none;container=1;" parent="18" vertex="1">
                    <mxGeometry x="15" y="40" width="80" height="45" as="geometry"/>
                </mxCell>
                <mxCell id="21" value="" style="rounded=0;whiteSpace=wrap;html=1;fillColor=none;container=1;" parent="1" vertex="1">
                    <mxGeometry x="30" y="-20" width="120" height="110" as="geometry"/>
                </mxCell>
                <mxCell id="22" value="mahito.merge" style="text;html=1;align=center;verticalAlign=middle;whiteSpace=wrap;rounded=0;" parent="21" vertex="1">
                    <mxGeometry x="10" y="10" width="80" height="20" as="geometry"/>
                </mxCell>
                <mxCell id="23" value="this" style="rounded=0;whiteSpace=wrap;html=1;fillColor=none;container=1;" parent="21" vertex="1">
                    <mxGeometry x="20" y="80" width="50" height="15" as="geometry"/>
                </mxCell>
                <mxCell id="24" value="soul" style="rounded=0;whiteSpace=wrap;html=1;fillColor=none;container=1;" parent="21" vertex="1">
                    <mxGeometry x="20" y="65" width="50" height="15" as="geometry"/>
                </mxCell>
                <mxCell id="25" style="edgeStyle=none;html=1;entryX=0;entryY=0.5;entryDx=0;entryDy=0;exitX=1;exitY=0.75;exitDx=0;exitDy=0;" parent="1" source="24" target="15" edge="1">
                    <mxGeometry relative="1" as="geometry"/>
                </mxCell>
                <mxCell id="26" style="edgeStyle=none;html=1;entryX=0;entryY=0.5;entryDx=0;entryDy=0;exitX=1;exitY=0.5;exitDx=0;exitDy=0;" parent="1" source="23" target="7" edge="1">
                    <mxGeometry relative="1" as="geometry"/>
                </mxCell>
                <mxCell id="27" value="" style="rounded=0;whiteSpace=wrap;html=1;fillColor=none;container=1;" vertex="1" parent="1">
                    <mxGeometry x="10" y="-210" width="170" height="430" as="geometry"/>
                </mxCell>
                <mxCell id="28" value="stack" style="text;html=1;align=center;verticalAlign=middle;whiteSpace=wrap;rounded=0;" vertex="1" parent="1">
                    <mxGeometry x="47.08" y="230" width="85.83" height="18.18" as="geometry"/>
                </mxCell>
                <mxCell id="34" value="" style="rounded=0;whiteSpace=wrap;html=1;fillColor=none;container=1;" vertex="1" parent="1">
                    <mxGeometry x="190" y="-230" width="200" height="450" as="geometry"/>
                </mxCell>
                <mxCell id="35" value="heap" style="text;html=1;align=center;verticalAlign=middle;whiteSpace=wrap;rounded=0;" vertex="1" parent="1">
                    <mxGeometry x="222.07999999999998" y="230" width="85.83" height="18.18" as="geometry"/>
                </mxCell>
            </root>
        </mxGraphModel>
    </diagram>
</mxfile>
